2.6Hz3min_grf.mot
version=1
nRows=30
nColumns 19
inDegrees=yes
endheader
time	1_ground_force_vx	1_ground_force_vy	1_ground_force_vz	1_ground_force_px	1_ground_force_py	1_ground_force_pz	1_ground_torque_x	1_ground_torque_y	1_ground_torque_z	2_ground_force_vx	2_ground_force_vy	2_ground_force_vz	2_ground_force_px	2_ground_force_py	2_ground_force_pz	2_ground_torque_x	2_ground_torque_y	2_ground_torque_z
            2.502500	            0.132056	           11.903263	           -1.279147	           -0.203549	            0.006015	           -0.355455	           -0.010238	           -0.922814	            0.099167	           -0.058712	            2.241244	           -8.861507	           -0.232311	            0.006130	           -0.833667	           -0.907864	            1.781019	            0.647665
            2.503000	            0.177314	           11.363654	           -1.556715	           -0.212055	            0.006075	           -0.369811	           -0.013626	           -0.873283	            0.119632	            0.176867	            1.873793	           -8.862921	           -0.232311	            0.006130	           -0.833667	           -0.870260	            1.780885	            0.723050
            2.503500	           -0.051754	           11.183147	           -1.511064	           -0.195688	            0.006085	           -0.371624	            0.004063	           -0.877981	            0.118633	           -0.150603	            1.689967	           -9.285791	           -0.232311	            0.006130	           -0.833667	           -0.945179	            1.714579	            0.685145
            2.504000	            0.040663	           11.542320	           -1.188754	           -0.198609	            0.006032	           -0.359257	           -0.002969	           -0.842750	            0.086796	            0.172674	            2.980356	           -9.328259	           -0.232311	            0.006130	           -0.833667	           -0.794837	            1.696284	            0.666164
            2.504500	           -0.051428	           10.641957	           -1.421671	           -0.209364	            0.006076	           -0.370073	            0.004173	           -0.863614	            0.115371	           -0.198138	            1.874113	           -9.332042	           -0.232311	            0.006130	           -0.833667	           -0.964050	            1.733551	            0.647520
            2.505000	           -0.097142	           11.182352	           -1.327526	           -0.208709	            0.006057	           -0.365485	            0.008175	           -0.941082	            0.111722	            0.222929	            2.059114	           -9.143852	           -0.232311	            0.006130	           -0.833667	           -0.907565	            1.696011	            0.628511
            2.505500	           -0.097142	           11.182352	           -1.327526	           -0.207837	            0.006035	           -0.360393	            0.008824	           -1.015784	            0.120590	           -0.009889	            1.689135	           -8.910426	           -0.232311	            0.006130	           -0.833667	           -0.907821	            1.762315	            0.591047
            2.506000	           -0.051544	           11.903620	           -1.370404	           -0.208191	            0.005996	           -0.351414	            0.004098	           -0.946426	            0.108957	           -0.149835	            1.504981	           -9.051808	           -0.232311	            0.006130	           -0.833667	           -0.982938	            1.771025	            0.723064
            2.506500	            0.085970	           11.363047	           -1.418920	           -0.209421	            0.006084	           -0.371962	           -0.006342	           -0.838266	            0.104676	           -0.103712	            1.689801	           -9.191955	           -0.232311	            0.006130	           -0.833667	           -0.926615	            1.771498	            0.647639
            2.507000	            0.039704	           11.183558	           -1.603003	           -0.206573	            0.006095	           -0.374237	           -0.002797	           -0.787947	            0.112941	           -0.200776	            2.610539	           -9.282486	           -0.232311	            0.006130	           -0.833667	           -1.001492	            1.695672	            0.628551
            2.507500	           -0.050843	           11.181575	           -1.144216	           -0.199207	            0.006057	           -0.365200	            0.003698	           -0.813291	            0.083225	           -0.150479	            1.688962	           -9.004222	           -0.232311	            0.006130	           -0.833667	           -0.907831	            1.780750	            0.723066
            2.508000	           -0.051218	           11.362430	           -1.281011	           -0.204093	            0.006086	           -0.372218	            0.003785	           -0.839612	            0.094659	           -0.106329	            2.426060	           -9.095470	           -0.232311	            0.006130	           -0.833667	           -0.907693	            1.733755	            0.647496
            2.508500	            0.041103	           11.000933	           -1.053505	           -0.199047	            0.006088	           -0.372433	           -0.003542	           -0.947866	            0.090772	           -0.008662	            1.321675	           -9.146381	           -0.232311	            0.006130	           -0.833667	           -0.870148	            1.734092	            0.590930
            2.509000	            0.132334	           11.001738	           -1.237156	           -0.198286	            0.006094	           -0.373850	           -0.011247	           -0.935008	            0.105143	            0.315985	            2.243434	           -9.096307	           -0.232311	            0.006130	           -0.833667	           -0.982810	            1.733282	            0.704079
            2.509500	           -0.372670	           10.642485	           -1.558442	           -0.204486	            0.006090	           -0.373114	            0.034232	           -0.977574	            0.143152	           -0.106932	            2.609706	           -8.954029	           -0.232311	            0.006130	           -0.833667	           -1.020695	            1.809104	            0.610114
            2.510000	            0.132172	           10.641599	           -1.330414	           -0.194286	            0.006060	           -0.365721	           -0.009438	           -0.759902	            0.095003	           -0.013191	            2.609709	           -8.860213	           -0.232311	            0.006130	           -0.833667	           -0.926675	            1.790336	            0.666557
            2.510500	            0.131699	           11.363252	           -1.464890	           -0.202448	            0.006045	           -0.362490	           -0.009267	           -0.799602	            0.103080	           -0.106288	            2.425725	           -9.001614	           -0.232311	            0.006130	           -0.833667	           -0.889087	            1.781154	            0.628807
            2.511000	           -0.234850	           11.543054	           -1.371495	           -0.205283	            0.006054	           -0.364751	            0.016376	           -0.804877	            0.095632	           -0.104274	            1.873113	           -8.956657	           -0.232311	            0.006130	           -0.833667	           -0.964000	            1.733148	            0.760622
            2.511500	           -0.143131	           11.362806	           -1.372495	           -0.207007	            0.006099	           -0.375234	            0.010932	           -0.867843	            0.104825	            0.079015	            2.979683	           -9.234363	           -0.232311	            0.006130	           -0.833667	           -0.982979	            1.762178	            0.553379
            2.512000	           -0.234362	           11.362002	           -1.188844	           -0.207258	            0.006035	           -0.360487	            0.020430	           -0.990448	            0.103634	            0.223614	            1.874799	           -9.097581	           -0.232311	            0.006130	           -0.833667	           -1.020313	            1.714241	            0.704028
            2.512500	           -0.142889	           11.903013	           -1.232609	           -0.206604	            0.006012	           -0.354984	            0.012122	           -1.009784	            0.104567	            0.173441	            2.795371	           -9.094276	           -0.232311	            0.006130	           -0.833667	           -1.001612	            1.733349	            0.666387
            2.513000	           -0.097564	           11.002873	           -1.511723	           -0.198359	            0.006099	           -0.374825	            0.008619	           -0.971961	            0.133541	            0.036879	            1.689974	           -9.098158	           -0.232311	            0.006130	           -0.833667	           -1.039311	            1.770956	            0.685388
            2.513500	           -0.051200	           10.641564	           -1.329959	           -0.194426	            0.006100	           -0.375042	            0.004111	           -0.854441	            0.106786	            0.272540	            1.321853	           -8.911860	           -0.232311	            0.006130	           -0.833667	           -0.926480	            1.742871	            0.722939
            2.514000	            0.361207	           11.002372	           -1.375293	           -0.189869	            0.006097	           -0.374017	           -0.025799	           -0.785851	            0.098231	           -0.014644	            2.979010	           -9.140467	           -0.232311	            0.006130	           -0.833667	           -0.851501	            1.790338	            0.741926
            2.514500	            0.086590	           10.460932	           -1.239361	           -0.197558	            0.006111	           -0.377759	           -0.006718	           -0.811590	            0.096153	            0.175497	            2.242424	           -8.955463	           -0.232311	            0.006130	           -0.833667	           -0.945333	            1.761708	            0.723014
            2.515000	            0.085610	           12.084502	           -1.507540	           -0.210264	            0.006036	           -0.360671	           -0.006607	           -0.932622	            0.116345	           -0.010656	            1.874120	           -9.144409	           -0.232311	            0.006130	           -0.833667	           -0.945469	            1.790335	            0.647715
            2.515500	           -0.051170	           11.722765	           -1.233609	           -0.202514	            0.006036	           -0.360404	            0.004271	           -0.978408	            0.102960	            0.271129	            1.690820	           -9.098258	           -0.232311	            0.006130	           -0.833667	           -0.888824	            1.723967	            0.760556
            2.516000	           -0.051415	           12.444024	           -1.276373	           -0.212906	            0.005937	           -0.337856	            0.003948	           -0.955629	            0.098018	            0.083003	            1.874793	           -9.238306	           -0.232311	            0.006130	           -0.833667	           -0.945451	            1.781017	            0.609981
            2.516500	           -0.143017	           11.362609	           -1.326639	           -0.206463	            0.006063	           -0.366820	            0.010670	           -0.847685	            0.098971	            0.077645	            3.348315	           -9.326905	           -0.232311	            0.006130	           -0.833667	           -0.964220	            1.780815	            0.647689
            2.517000	           -0.005812	           10.642359	           -1.513496	           -0.204144	            0.006088	           -0.372569	            0.000454	           -0.831728	            0.118284	            0.175435	            2.242926	           -9.096247	           -0.232311	            0.006130	           -0.833667	           -0.982758	            1.714511	            0.666311
